<?xml version="1.0" standalone="no"?>
<!DOCTYPE svg PUBLIC "-//W3C//DTD SVG 20010904//EN"
 "http://www.w3.org/TR/2001/REC-SVG-20010904/DTD/svg10.dtd">
<svg version="1.0" xmlns="http://www.w3.org/2000/svg"
 width="1326.000000pt" height="1024.000000pt" viewBox="0 0 1326.000000 1024.000000"
 preserveAspectRatio="xMidYMid meet">
<metadata>
Created by potrace 1.16, written by Peter Selinger 2001-2019
</metadata>
<g transform="translate(0.000000,1024.000000) scale(0.100000,-0.100000)"
fill="#000000" stroke="none">
<path d="M5909 7165 c-388 -63 -728 -240 -1030 -537 -177 -173 -282 -318 -384
-531 -62 -129 -115 -271 -115 -308 0 -16 -6 -17 -50 -12 -42 5 -51 3 -56 -12
-5 -11 -1 -22 9 -30 21 -15 21 -29 2 -45 -20 -17 -19 -46 2 -54 10 -4 27 3 46
21 l29 28 -6 -40 c-14 -93 -24 -317 -17 -410 8 -105 3 -125 -31 -125 -20 0
-78 -27 -78 -36 0 -4 12 -3 28 1 l27 6 -34 -35 c-19 -20 -41 -36 -48 -36 -26
0 -13 58 26 117 21 32 47 82 57 110 16 46 17 61 7 145 -10 78 -19 107 -59 185
-26 51 -65 114 -87 140 -111 135 -328 245 -807 408 -340 116 -675 272 -886
413 -135 90 -377 309 -428 387 -43 65 -86 150 -86 170 0 9 -4 14 -8 11 -10 -6
2 -103 23 -190 9 -33 44 -117 78 -186 58 -117 69 -131 184 -251 68 -70 156
-150 197 -178 100 -68 396 -233 516 -286 90 -41 424 -163 585 -215 118 -38
217 -80 278 -117 52 -31 57 -38 57 -69 0 -71 56 -145 134 -178 28 -12 32 -18
29 -42 -6 -37 28 -88 84 -129 26 -19 44 -41 48 -60 4 -16 16 -43 27 -58 26
-36 16 -47 -19 -21 -16 12 -31 37 -37 62 -9 33 -18 46 -45 60 -46 23 -71 59
-79 115 -6 41 -12 49 -42 65 -46 23 -106 105 -121 165 -10 44 -16 51 -54 67
-75 32 -366 141 -500 187 -276 95 -584 231 -753 334 -36 22 -69 38 -74 37 -5
-2 6 -32 23 -68 72 -142 319 -346 536 -440 113 -49 122 -55 69 -46 -144 26
-410 126 -467 174 -84 72 -18 -38 77 -129 105 -99 263 -192 409 -239 39 -13
75 -28 80 -33 17 -17 -140 1 -206 23 -34 12 -63 20 -65 18 -11 -12 42 -92 89
-134 90 -80 159 -109 403 -169 120 -29 259 -70 307 -91 83 -34 237 -126 237
-140 0 -3 -24 -33 -54 -65 -34 -36 -82 -109 -127 -191 -46 -85 -90 -152 -122
-185 -28 -29 -48 -53 -44 -53 5 0 37 18 73 39 36 22 88 45 117 51 79 19 206
88 258 142 34 34 49 44 57 36 8 -8 13 -6 18 8 4 10 18 35 30 54 12 19 35 67
50 105 53 135 164 253 164 174 0 -14 -7 -19 -30 -19 -24 0 -30 -4 -30 -21 0
-12 8 -23 20 -26 32 -8 24 -18 -32 -38 -61 -21 -71 -31 -55 -57 13 -19 62 -25
72 -8 14 23 24 6 27 -47 3 -57 3 -58 33 -58 30 0 30 1 28 50 l-3 50 15 -30
c21 -45 19 -57 -27 -154 -38 -80 -46 -90 -74 -96 -45 -8 -162 -125 -201 -200
-17 -33 -39 -98 -49 -144 -17 -80 -17 -89 -1 -205 10 -66 17 -135 17 -152 0
-46 11 -94 21 -89 4 3 4 -8 -1 -25 -12 -42 7 -28 29 20 9 21 40 56 67 78 67
53 106 101 144 179 58 117 60 205 11 473 -9 44 -8 57 4 70 8 9 28 44 45 77 16
34 33 64 38 67 5 3 24 -29 42 -70 l33 -75 -17 -82 c-34 -172 -11 -332 66 -462
80 -134 98 -177 105 -247 3 -38 9 -68 13 -68 4 0 12 26 18 58 6 31 27 93 47
137 37 81 53 135 62 212 l5 42 75 -60 c41 -32 112 -82 159 -111 46 -28 84 -54
84 -58 0 -4 -18 -19 -40 -34 -42 -28 -63 -55 -75 -96 -5 -19 0 -16 24 16 27
36 70 74 84 74 3 0 7 -9 10 -20 4 -16 -2 -24 -28 -34 -44 -19 -75 -51 -75 -77
0 -19 4 -18 40 15 42 38 77 48 66 20 -3 -9 -6 -24 -6 -35 0 -14 -7 -19 -25
-19 -59 0 -135 -56 -150 -110 l-6 -25 18 22 c33 40 95 83 120 83 19 0 24 -4
19 -16 -3 -9 -6 -18 -6 -20 0 -2 -6 -4 -14 -4 -18 0 -141 -131 -162 -172 -12
-25 4 -13 71 52 l86 85 -21 -55 c-40 -99 -41 -105 -32 -95 5 6 20 27 34 48
l25 38 7 -32 c3 -17 6 -43 6 -58 1 -56 18 6 25 89 3 47 13 96 20 110 l14 25 2
-35 c0 -19 4 -46 9 -60 l7 -25 8 28 c8 29 2 115 -11 156 -5 17 -4 22 4 17 7
-4 17 -27 23 -52 15 -58 29 -65 29 -14 0 46 -19 99 -43 119 -18 14 -24 71 -8
71 5 0 27 -35 48 -77 29 -61 39 -73 41 -55 2 13 -4 42 -13 64 -9 22 -14 42
-12 44 2 2 35 -5 73 -16 89 -26 153 -37 288 -50 111 -11 170 -7 163 13 -5 16
-24 24 -132 53 -126 34 -379 159 -490 241 -44 33 -114 95 -155 139 l-74 79 43
7 c51 9 91 32 91 54 0 8 -13 23 -30 32 -18 10 -30 25 -30 38 0 25 -24 49 -40
39 -7 -4 -18 2 -26 14 -25 35 -52 27 -73 -21 l-18 -42 -26 44 c-83 142 -152
329 -188 507 -28 138 -37 413 -19 578 18 167 19 166 81 -55 17 -63 51 -178 74
-255 24 -77 53 -175 64 -218 12 -43 33 -102 47 -130 31 -61 102 -164 134 -192
12 -11 43 -60 67 -110 122 -241 237 -352 443 -428 128 -47 150 -53 150 -38 0
6 -14 55 -31 108 -53 164 -119 244 -229 278 -105 32 -225 78 -260 100 -56 35
-174 167 -218 242 -46 78 -64 132 -159 483 -3 8 15 -20 38 -63 27 -51 59 -92
90 -119 54 -46 69 -78 69 -154 0 -65 16 -103 47 -110 37 -10 53 2 53 40 0 28
4 35 23 38 14 2 23 11 25 26 3 18 -10 36 -50 73 -29 28 -69 58 -88 69 -71 37
-194 200 -152 200 5 0 16 -16 25 -35 11 -22 24 -35 36 -35 51 0 20 65 -52 106
-44 26 -52 35 -67 84 -9 30 -40 102 -69 159 -50 103 -58 135 -45 200 8 40 15
39 38 -3 10 -19 51 -78 92 -132 61 -82 80 -116 110 -204 46 -134 126 -303 168
-355 18 -22 35 -48 39 -58 4 -9 10 -16 15 -15 4 2 32 -18 62 -43 30 -25 90
-67 133 -94 42 -26 100 -68 128 -92 27 -25 51 -44 53 -42 3 2 -6 36 -19 74
-12 39 -32 124 -43 190 -42 241 -129 351 -389 493 l-152 83 -64 87 c-36 48
-82 116 -102 151 l-37 63 22 77 c27 95 112 271 181 376 71 107 246 279 368
360 135 90 308 170 422 197 80 19 122 22 284 22 166 0 206 -4 316 -27 303 -64
445 -141 665 -362 202 -203 330 -438 379 -698 18 -94 21 -294 6 -388 -37 -227
-153 -458 -308 -613 -144 -145 -273 -223 -480 -292 -106 -36 -326 -75 -340
-61 -7 8 -19 557 -23 1090 l-2 258 28 41 c16 23 51 57 77 77 82 62 73 65 -188
71 -127 3 -238 2 -247 -2 -29 -14 -21 -43 17 -61 65 -31 64 -25 70 -433 5
-383 19 -1052 35 -1614 l9 -325 -35 -32 c-20 -17 -51 -39 -70 -48 -27 -13 -34
-22 -34 -44 0 -53 14 -56 234 -53 114 1 213 7 228 13 49 20 46 61 -5 79 -18 5
-45 20 -61 33 l-28 23 -6 422 -5 421 49 -5 c68 -8 289 12 406 36 202 42 418
130 563 231 136 94 287 275 362 434 67 141 94 261 100 445 5 138 3 170 -21
296 -49 270 -141 460 -330 683 -253 300 -509 460 -856 536 -105 23 -426 29
-541 10z m-802 -1642 c124 -57 245 -215 272 -353 21 -109 43 -215 48 -230 6
-15 -145 141 -160 167 -7 12 -5 13 11 4 12 -6 24 -16 27 -21 3 -6 20 -17 38
-26 l31 -17 -15 24 c-20 31 -106 89 -122 83 -7 -2 -20 9 -30 26 -18 30 -18 30
6 30 13 0 46 -7 73 -15 65 -20 80 -20 64 0 -16 19 -103 45 -152 45 -33 0 -40
4 -58 38 -11 20 -27 47 -36 60 -16 21 -15 22 7 22 14 0 55 -18 92 -39 57 -34
65 -36 55 -18 -22 43 -100 87 -152 87 -30 0 -37 5 -59 44 l-24 44 41 -5 c39
-5 69 -19 131 -59 l28 -18 -12 21 c-6 12 -32 36 -57 54 -40 27 -52 31 -94 27
-44 -4 -49 -3 -64 24 l-17 28 35 0 c20 0 61 -12 93 -27z m-1123 -632 c16 -17
15 -19 -13 -24 -16 -3 -42 -18 -57 -32 l-29 -26 35 17 c61 30 99 35 110 14 18
-33 12 -41 -24 -35 -24 5 -48 1 -82 -15 -56 -25 -45 -39 11 -16 41 17 75 21
75 8 0 -5 -14 -21 -31 -38 -28 -26 -35 -29 -89 -26 -81 5 -103 -12 -25 -18
l60 -5 -45 -31 c-39 -26 -49 -29 -72 -20 -16 5 -28 15 -28 21 0 33 155 245
179 245 4 0 16 -8 25 -19z m1352 -379 c16 -13 23 -32 27 -78 3 -34 12 -74 21
-90 l17 -29 -6 35 c-22 132 -20 139 34 94 26 -21 29 -29 21 -50 -13 -32 -13
-91 -1 -99 6 -3 13 15 17 40 3 25 10 48 14 50 13 8 40 -36 40 -65 0 -14 5 -32
10 -40 8 -12 10 -10 10 9 0 28 16 18 43 -28 l17 -30 -80 30 c-177 64 -196 84
-216 222 -7 51 -1 56 32 29z m-732 -84 c20 -30 22 -37 10 -42 -12 -5 -4 -19
33 -60 26 -30 50 -50 54 -45 3 6 21 -7 38 -27 32 -36 33 -40 29 -108 -3 -51
-12 -89 -33 -136 l-30 -65 -8 84 c-7 79 -20 125 -90 311 -25 66 -44 139 -34
130 3 -3 17 -22 31 -42z m-314 -78 c9 -25 22 -45 30 -45 22 0 24 -85 5 -152
-23 -78 -66 -150 -125 -208 l-50 -49 1 44 c1 25 5 59 9 75 8 30 8 30 9 3 1
-36 11 -59 22 -52 13 8 10 114 -5 149 -20 47 11 202 35 178 21 -21 29 -87 17
-146 -6 -32 -8 -60 -5 -64 13 -12 35 19 46 63 14 56 6 106 -25 161 -27 47 -29
60 -13 100 10 27 11 27 22 8 6 -11 18 -40 27 -65z m276 -70 c-18 -62 -21 -120
-7 -120 5 0 12 21 15 48 4 26 10 56 13 66 5 18 6 18 15 2 40 -72 86 -286 72
-341 -6 -23 -12 -15 -66 82 -33 59 -69 136 -80 171 -19 56 -20 70 -10 124 6
33 17 67 24 75 11 13 14 11 26 -18 12 -28 11 -41 -2 -89z"/>
<path d="M8786 7018 c-23 -55 -21 -139 5 -172 30 -38 54 -33 78 17 26 54 15
102 -34 155 l-34 37 -15 -37z"/>
<path d="M8940 6875 c-30 -32 -32 -98 -4 -146 28 -48 49 -48 73 0 37 71 20
171 -28 171 -10 0 -28 -11 -41 -25z"/>
<path d="M8620 6833 c1 -37 32 -103 62 -131 14 -12 42 -25 62 -29 34 -5 36 -4
36 20 0 61 -47 127 -109 153 -46 19 -51 18 -51 -13z"/>
<path d="M8810 6763 c1 -21 5 -58 10 -83 4 -25 7 -47 4 -49 -2 -2 -17 2 -34 9
-17 7 -51 13 -75 14 -25 1 -51 8 -57 14 -17 17 -65 15 -72 -4 -9 -24 -8 -31
10 -48 21 -21 41 -20 61 4 22 26 74 26 130 1 36 -17 43 -26 53 -63 6 -24 15
-56 20 -72 16 -47 12 -49 -22 -11 -17 20 -47 44 -67 54 -44 23 -191 33 -191
14 0 -6 29 -42 64 -79 l64 -67 77 5 c42 3 80 10 84 17 5 7 14 -2 24 -24 9 -20
17 -37 17 -39 0 -2 -23 -6 -51 -9 -28 -4 -65 -15 -82 -25 -18 -11 -37 -18 -44
-15 -37 14 -70 -46 -41 -75 27 -27 78 2 78 45 0 15 11 25 40 37 63 25 97 21
131 -16 35 -39 36 -48 5 -48 -14 0 -37 -5 -53 -11 -37 -14 -112 -71 -113 -86
0 -16 85 -43 137 -43 53 0 100 19 131 52 l23 25 64 -25 64 -25 -31 -29 c-16
-15 -34 -25 -39 -22 -5 2 -18 0 -29 -6 -29 -15 -26 -58 5 -72 32 -14 55 4 55
42 0 36 41 70 84 70 36 0 377 -87 389 -99 4 -4 -12 -16 -36 -25 -25 -9 -53
-26 -62 -36 -10 -11 -28 -20 -41 -20 -45 0 -56 -72 -14 -85 35 -11 60 12 60
55 0 34 4 42 30 55 17 9 55 20 85 26 47 9 59 7 95 -11 23 -11 59 -37 82 -58
40 -36 40 -36 16 -43 -13 -3 -49 -2 -80 4 -66 12 -132 3 -176 -23 -41 -25
-117 -139 -102 -154 15 -15 130 -19 179 -6 32 8 59 27 99 68 57 59 99 92 117
92 16 0 110 -147 149 -231 64 -142 113 -318 143 -509 26 -175 24 -469 -6 -619
-31 -157 -64 -256 -131 -396 -77 -159 -152 -245 -289 -333 -261 -169 -599
-162 -760 14 -181 198 -74 531 231 716 112 69 235 106 381 115 103 6 121 15
115 55 -7 54 -154 94 -313 85 -324 -18 -584 -170 -699 -410 -55 -113 -70 -189
-64 -310 9 -158 68 -291 183 -411 101 -106 226 -153 433 -163 340 -16 737 99
1047 305 194 128 362 350 435 572 48 147 62 251 63 465 1 160 -2 208 -21 303
-77 386 -267 694 -569 924 -93 71 -327 204 -416 236 -35 12 -46 21 -41 32 4 8
9 32 12 52 4 40 -14 58 -40 41 -7 -4 -22 -8 -33 -8 -17 0 -20 -6 -19 -41 l1
-41 -46 12 c-39 9 -47 15 -49 37 -5 39 24 87 56 93 46 10 57 21 57 55 0 24 -5
35 -22 41 -30 11 -56 -11 -56 -50 0 -17 -4 -31 -8 -31 -15 0 -49 -68 -49 -99
0 -26 -3 -31 -17 -27 -10 3 -31 8 -48 12 -46 10 -46 12 -19 54 42 63 43 116 3
236 -19 57 -37 104 -41 104 -3 0 -11 -12 -17 -27 -6 -16 -27 -50 -46 -77 -47
-65 -48 -115 -2 -184 45 -66 51 -82 29 -82 -30 0 -145 30 -159 42 -28 23 -10
118 23 118 22 0 40 46 24 65 -15 18 -59 20 -62 3 -4 -35 -9 -98 -10 -140 -1
-46 -2 -47 -27 -42 -14 4 -59 20 -98 36 -55 22 -83 42 -114 76 -48 55 -110
158 -134 225 -21 57 -35 61 -35 10z"/>
<path d="M9085 6716 c-49 -49 -56 -156 -14 -225 19 -31 21 -32 42 -19 56 37
77 169 37 236 -24 38 -33 40 -65 8z"/>
<path d="M7648 6347 c-86 -31 -49 -142 68 -204 32 -17 71 -33 87 -37 28 -7 73
-59 108 -128 17 -34 20 -75 30 -390 6 -194 18 -585 27 -868 20 -600 17 -721
-23 -830 -51 -141 -136 -249 -234 -300 -45 -22 -63 -53 -51 -85 12 -32 47 -44
119 -39 36 3 273 9 526 13 253 4 466 11 473 15 9 5 -5 25 -45 64 -66 65 -143
204 -188 337 -25 75 -27 96 -35 330 -5 138 -10 597 -12 1020 l-3 770 29 53
c35 62 51 73 125 81 63 7 74 22 33 47 -17 9 -41 35 -53 56 -13 22 -33 54 -44
71 l-21 32 -447 0 c-246 0 -457 -3 -469 -8z"/>
<path d="M9278 6055 c-53 -20 -85 -43 -108 -80 -11 -18 -20 -35 -20 -37 0 -9
86 -28 122 -28 83 0 175 56 180 110 3 20 -3 27 -32 37 -45 15 -96 15 -142 -2z"/>
</g>
</svg>
